<?xml version="1.0" standalone="no"?>
<!DOCTYPE svg PUBLIC "-//W3C//DTD SVG 20010904//EN"
 "http://www.w3.org/TR/2001/REC-SVG-20010904/DTD/svg10.dtd">
<svg version="1.0" xmlns="http://www.w3.org/2000/svg"
 width="1280.000000pt" height="707.000000pt" viewBox="0 0 1280.000000 707.000000"
 preserveAspectRatio="xMidYMid meet">
<metadata>
Created by potrace 1.15, written by Peter Selinger 2001-2017
</metadata>
<g transform="translate(0.000000,707.000000) scale(0.100000,-0.100000)"
fill="#000000" stroke="none">
<path d="M6098 7032 l-58 -37 0 -212 0 -213 24 -15 c17 -11 42 -15 83 -13 l58
3 17 165 c9 91 17 193 17 226 1 60 0 63 -39 98 -22 20 -41 36 -43 36 -1 0 -28
-17 -59 -38z"/>
<path d="M6332 6572 c-12 -48 -25 -114 -28 -147 -6 -56 -4 -63 21 -93 28 -34
73 -62 98 -62 12 0 148 220 147 239 -1 8 -198 151 -209 151 -4 0 -18 -39 -29
-88z"/>
<path d="M5435 6574 c-80 -17 -226 -83 -316 -145 -69 -46 -245 -197 -299 -255
l-35 -37 35 20 c19 12 184 107 365 213 182 106 339 199 350 207 19 12 19 13
-5 12 -14 0 -56 -7 -95 -15z"/>
<path d="M7255 6583 c8 -8 612 -362 725 -425 74 -41 -197 202 -310 279 -71 48
-202 110 -266 127 -82 20 -161 31 -149 19z"/>
<path d="M5502 6475 c-159 -85 -494 -321 -902 -636 -129 -99 -383 -280 -565
-401 -1070 -716 -1247 -885 -1625 -1558 -182 -324 -432 -803 -476 -912 -127
-314 -213 -739 -261 -1288 -14 -167 -18 -303 -17 -735 1 -291 5 -550 10 -574
9 -43 12 -36 97 265 97 344 122 456 166 754 16 113 39 246 51 295 62 269 233
804 355 1112 118 296 260 555 503 913 169 249 241 345 357 475 193 215 602
609 750 721 22 17 189 131 370 254 182 122 375 257 430 299 130 99 268 238
435 436 174 207 258 294 339 356 89 67 213 131 356 183 16 6 9 12 -40 32 -163
67 -222 68 -333 9z"/>
<path d="M7065 6501 c-33 -10 -82 -27 -110 -39 -42 -17 -47 -21 -30 -28 136
-51 213 -89 308 -151 102 -68 165 -130 355 -353 310 -363 389 -430 951 -809
173 -117 342 -235 375 -263 204 -168 642 -608 801 -802 72 -89 289 -403 397
-576 218 -348 328 -585 482 -1040 153 -447 231 -745 276 -1045 46 -313 72
-430 168 -765 82 -290 87 -303 94 -260 4 25 10 216 14 425 18 1007 -96 1790
-330 2280 -120 251 -446 850 -585 1073 -277 445 -518 657 -1471 1292 -168 112
-417 290 -555 395 -430 331 -795 586 -930 651 -79 39 -120 42 -210 15z"/>
<path d="M4304 6490 c-922 -63 -1838 -532 -2674 -1370 -102 -102 -246 -257
-320 -344 -128 -149 -370 -462 -370 -477 0 -4 35 5 78 21 42 15 230 76 417
135 899 282 938 296 1043 385 60 50 212 216 212 232 0 15 -113 19 -216 9 -203
-22 -606 -114 -886 -204 -94 -30 -91 -16 6 28 136 63 355 124 944 265 335 81
424 105 470 131 69 39 232 147 365 242 124 88 121 92 -98 91 -242 -1 -518 -44
-880 -139 -248 -65 -225 -61 -190 -31 137 118 680 208 1325 219 196 4 214 8
330 87 61 42 214 179 207 187 -2 2 -80 -8 -173 -21 -425 -62 -821 -103 -877
-90 -24 5 -27 8 -16 19 48 46 324 96 856 155 204 22 393 47 420 55 80 24 232
131 452 319 l94 81 -32 6 c-58 12 -362 17 -487 9z"/>
<path d="M8102 6491 c-62 -5 -115 -10 -118 -13 -11 -12 273 -244 405 -332 47
-31 108 -63 135 -71 28 -8 215 -33 416 -55 521 -57 737 -94 835 -143 39 -20
40 -20 15 -29 -45 -17 -461 25 -914 92 -76 11 -141 19 -143 17 -7 -8 145 -145
207 -187 116 -79 134 -83 330 -87 644 -11 1188 -101 1325 -219 35 -30 58 -34
-190 31 -364 95 -640 138 -880 139 -215 1 -221 -4 -114 -81 178 -126 223 -157
324 -218 104 -63 106 -64 342 -120 786 -189 1028 -256 1160 -324 57 -28 63
-44 11 -25 -215 76 -720 193 -922 215 -99 10 -216 6 -216 -8 0 -14 120 -151
184 -209 120 -110 139 -117 973 -378 237 -75 468 -149 512 -166 45 -16 81 -27
81 -24 0 11 -148 210 -243 327 -570 704 -1260 1259 -1947 1566 -513 229 -1066
335 -1568 302z"/>
<path d="M5845 6376 c-62 -29 -185 -121 -287 -216 -58 -53 -106 -113 -187
-234 -91 -135 -127 -180 -208 -254 -188 -174 -552 -454 -944 -726 -301 -209
-366 -262 -555 -450 -189 -189 -302 -323 -538 -639 -428 -573 -599 -847 -754
-1213 -128 -298 -199 -555 -313 -1114 -85 -421 -138 -628 -234 -915 -40 -121
-77 -229 -81 -240 -4 -11 34 29 86 90 201 232 589 648 1040 1113 305 315 399
417 463 505 26 36 102 117 170 179 275 254 367 353 472 513 92 141 185 270
487 680 331 450 412 591 858 1505 303 621 333 677 499 926 170 254 212 346
196 430 -15 81 -78 104 -170 60z"/>
<path d="M6823 6385 c-29 -21 -46 -77 -39 -128 12 -78 52 -154 193 -369 181
-274 201 -311 480 -883 491 -1007 537 -1086 999 -1711 126 -170 282 -390 348
-489 103 -156 136 -197 250 -310 72 -72 181 -177 243 -233 65 -60 143 -144
185 -200 40 -53 169 -196 287 -317 488 -502 1025 -1074 1200 -1282 47 -55 87
-100 89 -99 1 2 -16 52 -38 112 -104 279 -189 599 -289 1095 -84 412 -122 566
-202 802 -97 291 -228 567 -398 837 -133 212 -506 722 -720 985 -130 160 -393
426 -521 527 -52 42 -185 138 -295 213 -229 158 -654 475 -796 594 -197 165
-255 226 -362 385 -109 164 -207 269 -351 378 -132 99 -213 128 -263 93z"/>
<path d="M6108 6230 c-118 -265 -249 -526 -385 -769 -219 -389 -253 -455 -443
-854 -278 -586 -304 -632 -625 -1118 -575 -870 -884 -1240 -1692 -2022 -581
-562 -998 -986 -1070 -1087 -80 -112 -214 -320 -207 -320 3 0 35 21 71 47 73
52 71 53 32 -51 -10 -28 -18 -51 -16 -52 1 -1 187 83 412 188 555 257 755 347
1055 476 141 60 324 144 407 186 188 94 520 283 672 383 218 143 685 507 758
591 161 185 485 651 572 821 32 64 87 186 121 271 81 201 226 637 250 754 64
305 140 982 140 1251 0 72 5 162 10 200 15 104 64 296 110 436 l42 124 -8 139
c-6 123 -8 137 -21 120 -49 -67 -163 -557 -253 -1094 -72 -425 -236 -1139
-325 -1416 -102 -314 -461 -890 -798 -1279 -52 -60 -193 -203 -314 -316 -392
-371 -415 -388 -1043 -771 -344 -209 -565 -331 -1080 -596 -254 -130 -620
-305 -626 -299 -7 7 380 270 486 329 63 36 305 167 538 292 512 274 576 312
790 464 334 238 979 723 1056 794 180 166 342 430 676 1097 185 371 232 478
306 696 105 306 162 581 224 1070 22 171 47 346 56 390 36 175 110 399 178
533 l24 47 -29 175 c-16 96 -30 182 -32 190 -2 9 -10 1 -19 -20z"/>
<path d="M6643 6074 l-30 -186 44 -97 c56 -125 126 -339 152 -467 12 -55 32
-193 46 -305 81 -650 153 -974 306 -1364 51 -130 401 -834 523 -1053 169 -302
318 -504 443 -599 145 -112 838 -626 972 -722 246 -177 305 -211 931 -546 458
-245 532 -288 732 -428 103 -73 185 -133 184 -135 -6 -5 -394 180 -632 303
-562 288 -760 399 -1238 693 -455 279 -515 325 -880 670 -306 291 -449 459
-679 797 -230 339 -380 624 -447 845 -100 332 -240 952 -314 1390 -90 529
-209 1037 -254 1082 -6 6 -12 -38 -17 -128 l-8 -137 51 -161 c89 -280 112
-404 112 -611 0 -255 67 -867 131 -1205 21 -110 163 -549 243 -755 88 -224
196 -426 337 -630 316 -456 369 -517 666 -747 296 -230 410 -311 588 -420 329
-199 579 -328 949 -488 300 -129 572 -252 1031 -465 187 -86 363 -168 392
-180 l51 -23 -24 71 c-13 39 -24 72 -24 75 0 2 29 -17 64 -42 36 -25 67 -46
70 -46 9 0 -143 229 -229 345 -66 89 -184 211 -611 630 -989 972 -1121 1108
-1370 1406 -272 327 -665 884 -984 1394 -116 185 -191 329 -410 790 -191 402
-208 433 -433 835 -88 157 -214 400 -279 540 -66 140 -120 256 -122 257 -2 2
-17 -80 -33 -183z"/>
<path d="M3510 5297 c-344 -172 -491 -265 -665 -421 -152 -136 -542 -568 -684
-756 -181 -241 -335 -703 -460 -1380 -35 -188 -39 -237 -10 -135 91 323 262
736 454 1095 89 167 146 259 259 419 269 380 714 819 1198 1182 129 96 145
109 138 109 -3 0 -106 -51 -230 -113z"/>
<path d="M9060 5405 c0 -2 30 -25 68 -51 306 -219 745 -612 981 -879 270 -305
429 -542 620 -924 168 -334 295 -649 364 -898 17 -63 33 -110 35 -105 5 16
-45 288 -93 507 -101 453 -221 797 -350 996 -112 173 -542 656 -750 841 -118
106 -270 209 -452 307 -131 70 -423 213 -423 206z"/>
<path d="M2005 4566 c-399 -91 -745 -208 -997 -337 -129 -67 -166 -95 -231
-176 -363 -455 -614 -1029 -722 -1648 -42 -240 -68 -661 -50 -800 l8 -60 22
65 c84 247 353 580 600 745 107 71 322 186 526 280 187 87 288 155 331 225 15
25 44 101 63 170 53 184 207 791 202 796 -2 2 -26 -33 -52 -78 -51 -89 -418
-680 -443 -713 -17 -23 -16 -19 36 105 22 52 56 142 77 200 21 58 40 111 42
117 3 7 -82 -74 -189 -180 -222 -222 -699 -669 -706 -662 -3 3 9 34 27 69 61
120 251 354 529 651 77 83 139 151 137 153 -1 1 -58 -21 -126 -49 -164 -68
-228 -91 -205 -76 10 6 64 41 120 76 223 142 886 621 858 621 -6 0 -170 -34
-364 -76 -194 -41 -381 -81 -416 -88 -56 -12 -61 -12 -50 2 28 33 110 63 678
246 299 97 364 134 443 254 42 64 87 166 87 197 0 22 -23 19 -235 -29z m-1274
-1282 c-29 -14 -58 -23 -64 -21 -10 3 90 46 108 46 6 -1 -14 -12 -44 -25z
m445 -401 c-8 -16 -22 -37 -31 -48 -16 -19 -17 -19 -3 5 8 14 20 35 27 48 6
12 14 22 17 22 2 0 -2 -12 -10 -27z"/>
<path d="M10560 4597 c0 -26 38 -126 66 -173 42 -72 125 -149 196 -183 67 -31
212 -81 528 -181 246 -78 368 -125 406 -155 l29 -23 -65 13 c-36 8 -224 48
-418 89 -194 42 -357 76 -363 76 -31 0 648 -492 874 -632 53 -34 95 -63 94
-65 -2 -2 -75 26 -162 62 -87 36 -159 64 -161 63 -1 -2 54 -64 124 -138 283
-303 491 -559 547 -673 15 -32 26 -60 23 -62 -7 -7 -474 430 -700 655 -109
109 -198 195 -198 193 0 -10 135 -364 152 -396 11 -22 18 -41 16 -43 -4 -3
-304 473 -429 681 -39 66 -75 123 -78 128 -9 9 163 -668 208 -821 19 -62 46
-132 62 -157 42 -66 143 -134 328 -220 189 -88 415 -208 511 -270 91 -59 223
-177 320 -287 143 -161 230 -296 286 -447 l32 -85 7 70 c10 93 -1 408 -20 569
-77 651 -293 1225 -652 1732 -155 219 -192 250 -443 364 -244 111 -535 204
-890 285 -214 48 -230 50 -230 31z m1544 -1318 c23 -10 34 -19 26 -19 -8 0
-37 11 -65 25 -56 28 -25 23 39 -6z m-443 -444 l10 -20 -16 20 c-9 11 -21 29
-26 40 l-10 20 16 -20 c9 -11 21 -29 26 -40z"/>
<path d="M5890 2887 c-344 -617 -588 -998 -725 -1132 -113 -111 -460 -385
-705 -556 -154 -108 -554 -339 -725 -419 -102 -48 -299 -126 -730 -291 -132
-50 -276 -109 -320 -131 -86 -42 -178 -98 -172 -104 2 -2 57 7 123 20 548 112
1011 254 1305 402 262 130 630 360 836 521 248 193 399 345 536 538 217 304
515 874 647 1236 16 45 29 83 27 85 -1 1 -45 -75 -97 -169z"/>
<path d="M6836 2980 c78 -219 268 -618 419 -880 110 -192 249 -399 347 -515
237 -282 697 -619 1200 -879 228 -118 444 -200 771 -291 224 -62 704 -171 714
-162 6 7 -70 53 -163 100 -49 24 -192 84 -319 132 -685 261 -799 312 -1120
500 -223 130 -315 190 -465 299 -311 227 -583 452 -656 544 -120 150 -372 556
-614 987 -68 121 -127 225 -132 230 -5 6 3 -24 18 -65z"/>
<path d="M11092 293 c11 -27 30 -61 42 -78 17 -24 21 -26 24 -12 3 13 -73 137
-84 137 -2 0 6 -21 18 -47z"/>
<path d="M1676 278 c-34 -50 -49 -97 -26 -83 13 8 73 125 67 131 -2 3 -21 -19
-41 -48z"/>
</g>
</svg>
