<?xml version="1.0" encoding="UTF-8" standalone="no"?>
<!-- Created with Inkscape (http://www.inkscape.org/) -->

<svg
   width="210mm"
   height="297mm"
   viewBox="0 0 210 297"
   version="1.1"
   id="svg5"
   inkscape:version="1.2.1 (9c6d41e, 2022-07-14)"
   sodipodi:docname="ml.svg"
   xmlns:inkscape="http://www.inkscape.org/namespaces/inkscape"
   xmlns:sodipodi="http://sodipodi.sourceforge.net/DTD/sodipodi-0.dtd"
   xmlns="http://www.w3.org/2000/svg"
   xmlns:svg="http://www.w3.org/2000/svg">
  <sodipodi:namedview
     id="namedview7"
     pagecolor="#ffffff"
     bordercolor="#000000"
     borderopacity="0.25"
     inkscape:showpageshadow="2"
     inkscape:pageopacity="0.0"
     inkscape:pagecheckerboard="0"
     inkscape:deskcolor="#d1d1d1"
     inkscape:document-units="mm"
     showgrid="false"
     inkscape:zoom="0.4792789"
     inkscape:cx="135.62041"
     inkscape:cy="564.38954"
     inkscape:window-width="1294"
     inkscape:window-height="704"
     inkscape:window-x="72"
     inkscape:window-y="27"
     inkscape:window-maximized="1"
     inkscape:current-layer="layer1" />
  <defs
     id="defs2" />
  <g
     inkscape:label="Layer 1"
     inkscape:groupmode="layer"
     id="layer1">
    <path
       style="opacity:1;fill:#0000ff;fill-opacity:0.714474;stroke:#000000;stroke-width:0.264583;stroke-opacity:1"
       id="path10644"
       d="m 25.052759,136.36705 c 1.132453,-5.64198 3.053314,-11.04009 5.066222,-16.41459 2.712707,-7.34291 5.555956,-14.63144 8.635688,-21.827954 2.452237,-7.225091 4.970817,-14.419506 8.328572,-21.280524 1.007256,-1.942449 2.089804,-3.844915 3.264313,-5.691008 0.485844,-0.763646 0.9037,-1.563568 1.653061,-2.083289 1.287918,0.19576 2.161712,0.366889 -2.650069,-1.473634 -0.21164,-0.08095 0.299069,0.343384 0.416935,0.536911 0.600356,0.985729 0.782074,2.118844 1.005661,3.228665 0.674893,4.090231 0.748389,8.252087 0.88026,12.387524 0.07941,3.028173 0.218917,6.054329 0.288322,9.082731 0.06708,3.425901 -2.3e-4,6.852152 -0.07952,10.277168 -0.05156,2.13672 -0.03555,4.27416 -0.09472,6.41066 -0.03128,1.39828 -0.186346,2.54299 3.643122,1.03642 0.686229,-0.26997 0.176795,-1.46445 0.287427,-2.19352 0.410536,-2.70547 0.992876,-5.37448 1.569382,-8.04792 1.645552,-6.897595 3.993528,-13.602613 6.745557,-20.130585 1.380937,-2.770094 2.462469,-5.846513 4.624909,-8.141403 0.877802,-0.931566 1.202089,-1.076172 2.223256,-1.772476 2.075821,-1.100238 4.292293,-2.004547 6.573129,-2.58382 0.169005,-0.02355 0.338251,-0.09581 0.507021,-0.07062 0.0845,0.01262 0.262858,0.215318 0.187878,0.174357 -1.115206,-0.609229 -2.158691,-1.35559 -3.314989,-1.882677 -0.102565,-0.04675 -0.08531,0.208844 -0.134699,0.310166 -0.217689,0.446662 -0.928455,1.820849 -1.103305,2.160712 -1.768453,4.211426 -2.423421,8.764736 -2.978091,13.265454 -0.370645,2.870346 -0.583425,5.751174 -0.540123,8.644445 0.262411,3.053991 0.249115,6.11994 0.246078,9.182336 -0.01074,4.040371 -0.201594,8.082141 -0.527987,12.109051 -0.183975,2.83428 -0.654372,5.6402 -0.814289,8.47464 -0.222076,3.88177 -0.04128,7.77095 0.09625,11.65234 0.01677,0.38785 0.03355,0.7757 0.05033,1.16355 0,0 3.42106,1.71504 3.42106,1.71504 v 0 c -0.03447,-0.39482 -0.06893,-0.78964 -0.103402,-1.18446 -0.263191,-3.86287 -0.425579,-7.73916 -0.103997,-11.60487 0.234693,-2.83183 0.574911,-5.65287 0.785556,-8.48673 0.288494,-4.04502 0.395049,-8.10094 0.494469,-12.15434 0.05297,-3.041772 0.106712,-6.080919 -0.08913,-9.120002 -0.141034,-2.902808 -0.01614,-5.805863 0.319326,-8.693693 0.529317,-4.44456 1.136197,-8.974309 3.035509,-13.075205 1.660318,-2.943431 -0.158182,0.246017 1.228203,-2.100413 0.09783,-0.165574 0.421146,-0.375849 0.278765,-0.505127 -2.195978,-1.993876 -2.344319,-2.63443 -4.143753,-2.168144 -2.261679,0.716129 -4.512323,1.556864 -6.574515,2.737853 -1.033129,0.75221 -1.351171,0.903816 -2.23099,1.891871 -2.124665,2.386042 -3.080504,5.541481 -4.431057,8.372398 -1.48767,3.694428 -2.870993,7.407918 -4.176008,11.171148 -0.567539,1.636596 -1.620705,4.627996 -2.121506,6.42385 -0.232233,0.832776 -0.405416,1.680903 -0.608126,2.521355 -0.555123,2.674969 -1.112645,5.348569 -1.640864,8.028999 -0.139152,0.70613 -0.768242,1.49011 -0.417251,2.11842 0.71143,1.27354 2.09667,2.0363 3.242514,2.93911 0.104735,0.0825 -0.01288,-0.26637 -0.01934,-0.39955 -0.04292,-2.15601 -0.06821,-4.31252 -0.02899,-6.46883 0.02508,-3.43002 0.09783,-6.859713 0.08059,-10.289973 -0.02944,-3.040533 -0.1958,-6.077693 -0.332547,-9.1148 -0.193905,-4.136858 -0.266184,-8.291285 -0.794282,-12.402518 -0.385937,-2.465938 -1.492385,-7.28467 -5.495592,-6.030672 -0.699209,0.656288 -1.106521,1.450321 -1.58206,2.283002 -1.090541,1.909569 -2.122752,3.851934 -3.091764,5.826146 -3.260104,6.908996 -5.644116,14.161797 -8.308232,21.3115 -3.015869,7.232675 -5.754753,14.567825 -8.549656,21.888005 -1.230616,3.07655 -1.675599,4.0593 -2.702915,7.08877 -1.016042,2.99623 -1.806533,6.06368 -2.839736,9.05294 0,0 3.44412,1.92581 3.44412,1.92581 z" />
    <path
       style="opacity:1;fill:#0000ff;fill-opacity:0.714474;stroke:#000000;stroke-width:0.264583;stroke-opacity:1"
       id="path10646"
       d="m 84.683107,74.627631 c -0.554731,2.146871 -0.590339,4.354009 -0.545092,6.554575 0.02913,3.196699 -0.05102,6.390376 -0.220811,9.582208 -0.07229,2.071598 -0.263459,4.138729 -0.658669,6.17415 -0.250357,1.174851 -0.248164,2.396683 -0.260874,3.594996 0.194196,2.08752 0.195778,4.18223 0.12369,6.27554 -0.115173,2.00473 -0.26049,4.0078 -0.509646,6.00072 -0.110286,0.9766 -0.151164,1.95413 -0.313534,2.92441 -0.129982,0.65782 -0.266636,1.315 -0.351538,1.98049 -0.03226,0.34587 -0.05925,0.69445 -0.04154,1.0419 0.293667,2.71963 6.499196,2.01205 8.402278,1.9745 3.895537,-0.232 7.79577,-0.36576 11.694749,-0.52259 2.45146,-0.10885 4.87199,-0.61571 7.28723,-1.02972 1.71474,-0.28541 3.4332,-0.54733 5.14944,-0.82343 1.82344,-0.27568 1.66638,0.64757 -2.7679,-2.27333 -0.6222,0.31833 -1.25192,0.60918 -1.90425,0.86492 -0.6921,0.27294 -1.31753,0.68201 -1.97916,1.0172 -0.16372,0.051 -0.0923,0.0585 -0.21494,0.0164 1.13351,0.6361 2.25456,1.29493 3.40052,1.90831 0.0246,0.0131 -8e-5,-0.0569 0.009,-0.0831 0.0278,-0.0761 0.1199,-0.20506 0.161,-0.26701 0.091,-0.12612 0.18784,-0.24784 0.28317,-0.37067 0,0 -3.42255,-2.03199 -3.42255,-2.03199 v 0 c -0.0963,0.13188 -0.19409,0.26262 -0.28868,0.39571 -1.21192,1.83879 1.63532,3.57254 3.39354,2.60197 0.62603,-0.36238 1.24466,-0.74699 1.92883,-0.99319 0.65154,-0.25906 1.27323,-0.57691 1.92303,-0.83619 -3.37473,-2.65118 -1.84099,-2.5942 -3.7463,-2.20492 -1.6745,0.33505 -3.36133,0.60229 -5.044,0.8924 -2.40621,0.40263 -4.80911,0.88055 -7.250977,1.0013 -3.905072,0.24834 -7.815103,0.44768 -11.728524,0.48558 -1.136139,0.034 -2.273043,0.0684 -3.409802,0.0711 -0.320881,7.9e-4 -1.185563,-0.24112 -0.962588,-0.0104 2.104054,2.17742 3.857376,1.49534 2.684447,1.9312 -0.1772,-0.2377 -0.01273,-0.64376 -0.04159,-0.91685 0.0593,-0.66415 0.174956,-1.32108 0.306234,-1.9745 0.183002,-0.98081 0.233059,-1.96843 0.29555,-2.96283 0.193898,-2.02017 0.349034,-4.04414 0.436021,-6.07196 0.06804,-2.07504 0.174725,-4.16111 -0.01222,-6.23232 -0.0086,-1.18113 0.0051,-2.376936 0.213717,-3.541455 0.348173,-2.072899 0.520967,-4.169952 0.583449,-6.270617 0.133709,-3.19831 0.197225,-6.39636 0.239905,-9.597189 -0.0013,-2.14689 -0.04126,-4.324694 0.605184,-6.399495 0,0 -3.446293,-1.875896 -3.446293,-1.875896 z" />
    <path
       style="opacity:1;fill:#000080;fill-opacity:0.714474;stroke:#000000;stroke-width:0.264583;stroke-opacity:1"
       id="path10650"
       d="m 25.532424,134.64746 c 1.264711,-0.93064 2.601957,-1.75637 3.908538,-2.62593 0.359376,-0.2491 0.732343,-0.48635 1.139606,-0.64783 0.07296,-0.0247 0.126418,-0.0681 0.180009,-0.12086 0,0 -3.377284,-2.13187 -3.377284,-2.13187 v 0 c -0.04179,0.0137 -0.08553,0.0247 -0.123545,0.0503 -0.400225,0.20497 -0.764119,0.47577 -1.125232,0.74125 -1.279809,0.92131 -2.60312,1.77803 -3.929188,2.63081 0,0 3.327096,2.10412 3.327096,2.10412 z" />
    <path
       style="opacity:1;fill:#000080;fill-opacity:0.714474;stroke:#000000;stroke-width:0.264583;stroke-opacity:1"
       id="path10658"
       d="m 105.34416,112.60924 c -0.90191,0.0614 -1.82186,2.4e-4 -2.71786,-0.1236 -2.0769,-0.70797 4.23725,2.63585 2.72995,1.64757 -0.0683,-0.0513 -0.10299,0.0943 0.0655,-0.0301 0.12402,-0.18099 0.17494,-0.19226 0.34178,-0.23325 0.31185,-0.0358 0.62231,-0.0185 0.93743,-0.0585 0.42446,-0.0622 0.78092,-0.24717 1.21403,-0.26734 1.67891,0.10939 5.10479,2.42311 -1.06081,-1.10499 0.46324,0.25965 0.7916,0.68782 1.14644,1.0722 0.43591,0.49057 0.72956,1.08127 1.10374,1.61603 0,0 3.64845,1.57458 3.64845,1.57458 v 0 c -0.41355,-0.52771 -0.73968,-1.10543 -1.11946,-1.65677 -0.33968,-0.41267 -0.6967,-0.82531 -1.08938,-1.18608 -1.7293,-0.99377 -3.67443,-2.63982 -5.85064,-2.60056 -0.41438,0.0707 -0.80527,0.22621 -1.22763,0.25 -0.33684,0.0222 -0.68542,-0.008 -1.00265,0.13017 -0.16778,0.0738 -0.2729,0.20009 -0.40449,0.31707 -0.17314,0.10832 -0.33156,0.26776 -0.31632,0.48787 0.14259,1.6362 2.51255,2.24183 4.05635,2.39955 0.93128,0.0726 1.87893,0.15623 2.80632,0.0129 0,0 -3.26076,-2.24676 -3.26076,-2.24676 z" />
  </g>
</svg>
